<?xml version="1.0" encoding="UTF-8" standalone="no"?>
<!-- Generator: Adobe Illustrator 19.0.0, SVG Export Plug-In . SVG Version: 6.00 Build 0)  -->

<svg
   version="1.1"
   id="Capa_1"
   x="0px"
   y="0px"
   viewBox="0 0 222.02492 272.85548"
   xml:space="preserve"
   width="222.00584"
   height="272.83203"
   sodipodi:docname="document.svg"
   inkscape:version="1.1.2 (0a00cf5339, 2022-02-04)"
   xmlns:inkscape="http://www.inkscape.org/namespaces/inkscape"
   xmlns:sodipodi="http://sodipodi.sourceforge.net/DTD/sodipodi-0.dtd"
   xmlns="http://www.w3.org/2000/svg"
   xmlns:svg="http://www.w3.org/2000/svg"><defs
   id="defs165"><linearGradient
   id="linearGradient6096"
   inkscape:swatch="solid"><stop
     style="stop-color:#000000;stop-opacity:1;"
     offset="0"
     id="stop6094" /></linearGradient>
			
			
			
			
			
			
			
		
	

		
	</defs><sodipodi:namedview
   id="namedview163"
   pagecolor="#ffffff"
   bordercolor="#666666"
   borderopacity="1.0"
   inkscape:pageshadow="2"
   inkscape:pageopacity="0.0"
   inkscape:pagecheckerboard="0"
   showgrid="false"
   fit-margin-top="0"
   fit-margin-left="0"
   fit-margin-right="0"
   fit-margin-bottom="0"
   inkscape:zoom="1.863974"
   inkscape:cx="104.34695"
   inkscape:cy="109.17534"
   inkscape:window-width="1846"
   inkscape:window-height="1016"
   inkscape:window-x="74"
   inkscape:window-y="27"
   inkscape:window-maximized="1"
   inkscape:current-layer="Capa_1" />
<path
   id="rect9591"
   style="fill:#ffffff;fill-opacity:1;stroke:#ffffff;stroke-width:2.50000009;stroke-miterlimit:4;stroke-dasharray:none;stroke-opacity:0.98982656"
   inkscape:label="rect9591"
   d="M 17.078125 4.5 C 10.078945 4.5087894 4.5095358 10.074328 4.5 17.052734 L 4.5 17.056641 L 4.5 255.77539 L 4.5 255.7793 C 4.50879 262.75723 10.078354 268.32247 17.078125 268.33203 L 17.082031 268.33203 L 145.14062 268.33203 C 146.22737 268.32703 147.26164 267.89749 148.03125 267.13477 L 216.0957 199.17188 L 216.08398 199.1875 L 216.28125 198.98438 C 216.57959 198.67606 216.81609 198.30972 217.00195 197.91406 C 217.21419 197.36161 217.36127 196.79105 217.41797 196.20898 C 217.50287 194.90403 217.50586 194.85184 217.50586 196.09766 L 217.50586 27.695312 L 217.50586 14.277344 L 217.41211 14.261719 L 216.43945 12.037109 C 214.43686 7.4562292 209.93743 4.5073794 204.92578 4.5 L 198.91016 4.5 L 198.91016 4.5996094 L 87.5 4.5996094 L 87.5 4.5 L 17.082031 4.5 L 17.078125 4.5 z M 12.580078 12.552734 L 209.43164 12.552734 L 209.43164 192.07227 L 152.74805 192.07227 C 146.27229 192.08127 141.12809 197.22564 141.12109 203.68164 L 141.12109 260.2793 L 12.580078 260.2793 L 12.580078 192.07227 L 12.580078 12.552734 z M 149.19922 200.12305 L 203.73047 200.12305 L 149.19922 254.57617 L 149.19922 204.62305 L 149.19922 200.12305 z "
   transform="scale(1.0000859)" /><path
   d="m 45.890445,126.97207 h 17.07921 c 4.71637,0 8.53911,-2.23338 8.53911,-4.98886 0,-2.75546 -3.82374,-4.98885 -8.53911,-4.98885 h -17.07921 c -4.71637,0 -8.53911,2.23339 -8.53911,4.98885 0,2.75548 3.82274,4.98886 8.53911,4.98886 z"
   fill="#ffffff"
   id="path112"
   style="fill:#ffffff;stroke-width:0.764901;fill-opacity:1;stroke:none" /><path
   d="m 93.936059,127.90033 h 85.394061 c 4.71637,0 8.53911,-2.28059 8.53911,-5.0943 0,-2.81372 -3.82274,-5.09431 -8.53911,-5.09431 H 93.936059 c -4.71638,0 -8.53911,2.28059 -8.53911,5.09431 0,2.81371 3.82273,5.0943 8.53911,5.0943 z"
   fill="#ffffff"
   id="path124"
   style="fill:#ffffff;stroke-width:0.772942;fill-opacity:1;stroke:none" /><path
   d="m 46.052485,86.984741 h 17.07921 c 4.71637,0 8.53911,-2.23338 8.53911,-4.98886 0,-2.75546 -3.82374,-4.98885 -8.53911,-4.98885 h -17.07921 c -4.71637,0 -8.53911,2.23339 -8.53911,4.98885 0,2.75548 3.82274,4.98886 8.53911,4.98886 z"
   fill="#ffffff"
   id="path112-2"
   style="fill:#ffffff;stroke-width:0.764901;fill-opacity:1;stroke:none" /><path
   d="m 94.098099,87.913001 h 85.394061 c 4.71637,0 8.53911,-2.28059 8.53911,-5.0943 0,-2.81372 -3.82274,-5.09431 -8.53911,-5.09431 H 94.098099 c -4.71638,0 -8.53911,2.28059 -8.53911,5.09431 0,2.81371 3.82273,5.0943 8.53911,5.0943 z"
   fill="#ffffff"
   id="path124-1"
   style="fill:#ffffff;stroke-width:0.772942;fill-opacity:1;stroke:none" /><path
   d="m 45.443982,50.475098 h 17.07921 c 4.71637,0 8.53911,-2.23338 8.53911,-4.98886 0,-2.75546 -3.82374,-4.98885 -8.53911,-4.98885 h -17.07921 c -4.71637,0 -8.53911,2.23339 -8.53911,4.98885 0,2.75548 3.82274,4.98886 8.53911,4.98886 z"
   fill="#ffffff"
   id="path112-3"
   style="fill:#ffffff;stroke-width:0.764901;fill-opacity:1;stroke:none" /><path
   d="m 93.489596,51.403358 h 85.394054 c 4.71637,0 8.53911,-2.28059 8.53911,-5.0943 0,-2.81372 -3.82274,-5.09431 -8.53911,-5.09431 H 93.489596 c -4.71638,0 -8.53911,2.28059 -8.53911,5.09431 0,2.81371 3.82273,5.0943 8.53911,5.0943 z"
   fill="#ffffff"
   id="path124-9"
   style="fill:#ffffff;stroke-width:0.772942;fill-opacity:1;stroke:none" />















</svg>
